<svg width="89" height="89" viewBox="0 0 89 89" fill="none" xmlns="http://www.w3.org/2000/svg">
<circle cx="44.4869" cy="44.4869" r="44.4869" fill="white"/>
<path d="M44.4865 82.1293C23.6964 82.1293 6.84375 65.2766 6.84375 44.4865C6.84375 23.6964 23.6964 6.84375 44.4865 6.84375C65.2766 6.84375 82.1293 23.6964 82.1293 44.4865C82.1293 65.2766 65.2766 82.1293 44.4865 82.1293ZM39.2975 30.9916C39.298 30.9916 39.2983 30.9909 39.2978 30.9905C39.0716 30.84 38.8089 30.7535 38.5375 30.7402C38.2655 30.7269 37.9949 30.7875 37.7547 30.9158C37.5144 31.044 37.3134 31.235 37.1731 31.4685C37.0328 31.7019 36.9585 31.969 36.958 32.2413V56.7317C36.9585 57.0041 37.0328 57.2712 37.1731 57.5046C37.3134 57.738 37.5144 57.929 37.7547 58.0573C37.9949 58.1855 38.2655 58.2462 38.5375 58.2328C38.8095 58.2195 39.0728 58.1326 39.2994 57.9815L57.6653 45.74C57.8718 45.6026 58.0412 45.4162 58.1583 45.1975C58.2755 44.9789 58.3368 44.7346 58.3368 44.4865C58.3368 44.2384 58.2755 43.9942 58.1583 43.7755C58.0412 43.5568 57.8718 43.3705 57.6653 43.233L39.2972 30.9926C39.2967 30.9923 39.2969 30.9916 39.2975 30.9916Z" fill="url(#paint0_linear_780_428)"/>
<defs>
<linearGradient id="paint0_linear_780_428" x1="44.4865" y1="11.166" x2="105.389" y2="37.695" gradientUnits="userSpaceOnUse">
<stop stop-color="#AD298A"/>
<stop offset="1" stop-color="#F17DD9"/>
</linearGradient>
</defs>
</svg>
