<svg width="30" height="25" viewBox="0 0 30 25" fill="none" xmlns="http://www.w3.org/2000/svg">
<g id="Group" opacity="0.4">
<g id="02 User">
<path id="Vector" d="M2.00454 24.5711C1.72707 24.5712 1.45582 24.5008 1.2251 24.369C0.994373 24.2372 0.814543 24.0498 0.708353 23.8305C0.602163 23.6113 0.574384 23.37 0.62853 23.1373C0.682676 22.9045 0.816314 22.6907 1.01254 22.5229L26.9347 0.351446C27.1978 0.126419 27.5547 0 27.9267 0C28.2988 0 28.6556 0.126419 28.9187 0.351446C29.1818 0.576474 29.3296 0.881676 29.3296 1.19991C29.3296 1.51815 29.1818 1.82335 28.9187 2.04838L2.99654 24.2198C2.86639 24.3314 2.71175 24.4199 2.54152 24.4801C2.37128 24.5404 2.18879 24.5713 2.00454 24.5711Z" fill="black"/>
<path id="Vector_2" d="M27.9267 24.5711C27.7424 24.5713 27.5599 24.5404 27.3897 24.4801C27.2194 24.4199 27.0648 24.3314 26.9347 24.2198L1.01246 2.04838C0.749368 1.82335 0.601563 1.51815 0.601562 1.19991C0.601563 0.881676 0.749368 0.576474 1.01246 0.351446C1.27556 0.126419 1.63239 0 2.00446 0C2.37654 0 2.73337 0.126419 2.99646 0.351446L28.9187 22.5229C29.1149 22.6907 29.2485 22.9045 29.3027 23.1373C29.3568 23.37 29.329 23.6113 29.2228 23.8305C29.1167 24.0498 28.9368 24.2372 28.7061 24.369C28.4754 24.5008 28.2041 24.5712 27.9267 24.5711Z" fill="black"/>
</g>
</g>
</svg>
