<svg width="14" height="14" viewBox="0 0 14 14" fill="none" xmlns="http://www.w3.org/2000/svg">
<path d="M1.41367 8.06914L2.28047 8.24141C2.49648 8.28516 2.71797 8.2168 2.87383 8.06094L3.29492 7.63984C3.61211 7.32266 4.14531 7.41016 4.34492 7.80938L4.59922 8.31523C4.73047 8.57773 4.99844 8.74453 5.29375 8.74453C5.70938 8.74453 6.00742 8.34531 5.88711 7.94609L5.72305 7.40195C5.59727 6.98086 5.91172 6.55703 6.35195 6.55703H6.41484C6.78125 6.55703 7.12305 6.37383 7.32539 6.07031L7.61797 5.63008C7.77109 5.39766 7.76289 5.09414 7.59609 4.87266L7.15586 4.28477C6.87422 3.91016 7.06563 3.36875 7.52227 3.25391L7.98711 3.13633C8.19219 3.08437 8.35898 2.93945 8.43828 2.74258L8.88672 1.62422C8.29609 1.42461 7.66172 1.3125 7 1.3125C3.8582 1.3125 1.3125 3.8582 1.3125 7C1.3125 7.36641 1.34805 7.72461 1.41367 8.06914ZM12.5617 8.19492C12.4797 8.18672 12.3977 8.19219 12.3156 8.2168L11.8836 8.33711C11.7004 8.38906 11.5063 8.3125 11.4051 8.15391L11.3504 8.06914C11.1863 7.81211 10.902 7.65625 10.5957 7.65625C10.2895 7.65625 10.0051 7.81211 9.84102 8.06914L9.67422 8.32891C9.63594 8.38906 9.58125 8.44102 9.51836 8.47383L8.53125 9.02617C8.03633 9.30234 7.83398 9.91211 8.06641 10.4289L8.2168 10.768C8.45195 11.293 9.05625 11.5473 9.59766 11.3449L9.66875 11.3176C9.94219 11.2164 10.2512 11.2574 10.4863 11.4297L10.5273 11.4598C11.5445 10.6531 12.2801 9.50742 12.5617 8.19219V8.19492ZM0 7C0 5.14348 0.737498 3.36301 2.05025 2.05025C3.36301 0.737498 5.14348 0 7 0C8.85652 0 10.637 0.737498 11.9497 2.05025C13.2625 3.36301 14 5.14348 14 7C14 8.85652 13.2625 10.637 11.9497 11.9497C10.637 13.2625 8.85652 14 7 14C5.14348 14 3.36301 13.2625 2.05025 11.9497C0.737498 10.637 0 8.85652 0 7ZM3.95117 9.51836C3.89375 9.75352 4.03594 9.99141 4.26836 10.0488L5.14336 10.2676C5.37852 10.325 5.61641 10.1828 5.67383 9.95039C5.73125 9.71797 5.58906 9.47734 5.35664 9.41992L4.48164 9.20117C4.24648 9.14375 4.00859 9.28594 3.95117 9.51836ZM6.4668 8.97148C6.40938 9.20664 6.55156 9.44453 6.78398 9.50195C7.01641 9.55937 7.25703 9.41719 7.31445 9.18477L7.5332 8.30977C7.59062 8.07461 7.44844 7.83672 7.21602 7.7793C6.98359 7.72188 6.74297 7.86406 6.68555 8.09648L6.4668 8.97148ZM9.38438 3.10898C9.16836 2.99961 8.90586 3.08984 8.79648 3.30586L8.35898 4.18086C8.24961 4.39687 8.33984 4.65937 8.55586 4.76875C8.77187 4.87812 9.03437 4.78789 9.14375 4.57187L9.58125 3.69687C9.69062 3.48086 9.60039 3.21836 9.38438 3.10898Z" fill="#A62784"/>
</svg>
