<svg width="14" height="14" viewBox="0 0 14 14" fill="none" xmlns="http://www.w3.org/2000/svg">
<path d="M5 3.0625C5 2.09727 5.89688 1.3125 7 1.3125C8.10312 1.3125 9 2.09727 9 3.0625V4.375H5V3.0625ZM3.5 4.375H1.5C0.671875 4.375 0 4.96289 0 5.6875V11.375C0 12.8242 1.34375 14 3 14H11C12.6562 14 14 12.8242 14 11.375V5.6875C14 4.96289 13.3281 4.375 12.5 4.375H10.5V3.0625C10.5 1.36992 8.93438 0 7 0C5.06562 0 3.5 1.36992 3.5 3.0625V4.375ZM4.25 5.6875C4.44891 5.6875 4.63968 5.75664 4.78033 5.87971C4.92098 6.00278 5 6.1697 5 6.34375C5 6.5178 4.92098 6.68472 4.78033 6.80779C4.63968 6.93086 4.44891 7 4.25 7C4.05109 7 3.86032 6.93086 3.71967 6.80779C3.57902 6.68472 3.5 6.5178 3.5 6.34375C3.5 6.1697 3.57902 6.00278 3.71967 5.87971C3.86032 5.75664 4.05109 5.6875 4.25 5.6875ZM9 6.34375C9 6.1697 9.07902 6.00278 9.21967 5.87971C9.36032 5.75664 9.55109 5.6875 9.75 5.6875C9.94891 5.6875 10.1397 5.75664 10.2803 5.87971C10.421 6.00278 10.5 6.1697 10.5 6.34375C10.5 6.5178 10.421 6.68472 10.2803 6.80779C10.1397 6.93086 9.94891 7 9.75 7C9.55109 7 9.36032 6.93086 9.21967 6.80779C9.07902 6.68472 9 6.5178 9 6.34375Z" fill="#A62874"/>
</svg>
