<svg width="10" height="12" viewBox="0 0 10 12" fill="none" xmlns="http://www.w3.org/2000/svg">
<path d="M2.22222 3.43048C2.22222 2.48516 3.21875 1.71658 4.44444 1.71658H5.55556C6.78125 1.71658 7.77778 2.48516 7.77778 3.43048V3.52689C7.77778 4.11069 7.39236 4.65432 6.75694 4.96764L5.29167 5.69337C4.41667 6.1272 3.88889 6.87436 3.88889 7.67507V7.71256C3.88889 8.18657 4.38542 8.56952 5 8.56952C5.61458 8.56952 6.11111 8.18657 6.11111 7.71256V7.67507C6.11111 7.45548 6.25694 7.25195 6.49306 7.13412L7.95833 6.40839C9.22917 5.77639 10 4.69181 10 3.52421V3.42781C10 1.53448 8.01042 0 5.55556 0H4.44444C1.98958 0.00267797 0 1.53716 0 3.43048C0 3.90449 0.496528 4.28744 1.11111 4.28744C1.72569 4.28744 2.22222 3.90449 2.22222 3.43048ZM5 12C5.36836 12 5.72163 11.8871 5.98209 11.6863C6.24256 11.4854 6.38889 11.2129 6.38889 10.9288C6.38889 10.6447 6.24256 10.3723 5.98209 10.1714C5.72163 9.97048 5.36836 9.85762 5 9.85762C4.63164 9.85762 4.27837 9.97048 4.01791 10.1714C3.75744 10.3723 3.61111 10.6447 3.61111 10.9288C3.61111 11.2129 3.75744 11.4854 4.01791 11.6863C4.27837 11.8871 4.63164 12 5 12Z" fill="#A62784"/>
</svg>
