<svg width="6" height="8" viewBox="0 0 6 8" fill="none" xmlns="http://www.w3.org/2000/svg">
<g clip-path="url(#clip0_1965_1163)">
<path d="M1.33333 2.28699C1.33333 1.65677 1.93125 1.14439 2.66666 1.14439H3.33334C4.06875 1.14439 4.66667 1.65677 4.66667 2.28699V2.35126C4.66667 2.74046 4.43542 3.10288 4.05416 3.31176L3.175 3.79558C2.65 4.0848 2.33333 4.58291 2.33333 5.11671V5.14171C2.33333 5.45771 2.63125 5.71301 3 5.71301C3.36875 5.71301 3.66667 5.45771 3.66667 5.14171V5.11671C3.66667 4.97032 3.75416 4.83463 3.89584 4.75608L4.775 4.27226C5.5375 3.85093 6 3.12787 6 2.34947V2.28521C6 1.02299 4.80625 0 3.33334 0H2.66666C1.19375 0.00178531 0 1.02477 0 2.28699C0 2.60299 0.297917 2.85829 0.666666 2.85829C1.03541 2.85829 1.33333 2.60299 1.33333 2.28699ZM3 8C3.22102 8 3.43298 7.92473 3.58925 7.79087C3.74554 7.65693 3.83333 7.47527 3.83333 7.28587C3.83333 7.09647 3.74554 6.91487 3.58925 6.78093C3.43298 6.64699 3.22102 6.57175 3 6.57175C2.77898 6.57175 2.56702 6.64699 2.41075 6.78093C2.25446 6.91487 2.16667 7.09647 2.16667 7.28587C2.16667 7.47527 2.25446 7.65693 2.41075 7.79087C2.56702 7.92473 2.77898 8 3 8Z" fill="#A62784"/>
</g>
<defs>
<clipPath id="clip0_1965_1163">
<rect width="6" height="8" fill="white"/>
</clipPath>
</defs>
</svg>
