<svg width="14" height="14" viewBox="0 0 14 14" fill="none" xmlns="http://www.w3.org/2000/svg">
<path d="M7 7C8.06087 7 9.07828 6.63125 9.82843 5.97487C10.5786 5.3185 11 4.42826 11 3.5C11 2.57174 10.5786 1.6815 9.82843 1.02513C9.07828 0.368749 8.06087 0 7 0C5.93913 0 4.92172 0.368749 4.17157 1.02513C3.42143 1.6815 3 2.57174 3 3.5C3 4.42826 3.42143 5.3185 4.17157 5.97487C4.92172 6.63125 5.93913 7 7 7ZM5.57188 8.3125C2.49375 8.3125 0 10.4945 0 13.1879C0 13.6363 0.415625 14 0.928125 14H13.0719C13.5844 14 14 13.6363 14 13.1879C14 10.4945 11.5063 8.3125 8.42813 8.3125H5.57188Z" fill="#A62784"/>
</svg>
