<svg width="14" height="14" viewBox="0 0 14 14" fill="none" xmlns="http://www.w3.org/2000/svg">
<path d="M7 14C3.134 14 0 10.866 0 7C0 3.134 3.134 0 7 0C10.866 0 14 3.134 14 7C14 10.866 10.866 14 7 14ZM7 12.6C10.0928 12.6 12.6 10.0928 12.6 7C12.6 3.9072 10.0928 1.4 7 1.4C3.9072 1.4 1.4 3.9072 1.4 7C1.4 10.0928 3.9072 12.6 7 12.6ZM7.7 5.95V9.1H8.4V10.5H5.6V9.1H6.3V7.35H5.6V5.95H7.7ZM8.05 4.2C8.05 4.7799 7.57988 5.25 7 5.25C6.42012 5.25 5.95 4.7799 5.95 4.2C5.95 3.6201 6.42012 3.15 7 3.15C7.57988 3.15 8.05 3.6201 8.05 4.2Z" fill="#B1B1B1"/>
</svg>
