<svg width="25" height="25" viewBox="0 0 25 25" fill="none" xmlns="http://www.w3.org/2000/svg">
<g opacity="0.4">
<path d="M1.19998 24.5711C0.962657 24.5712 0.730654 24.5008 0.533314 24.369C0.335974 24.2372 0.182164 24.0498 0.091339 23.8305C0.000513935 23.6113 -0.0232456 23.37 0.0230657 23.1373C0.069377 22.9045 0.183679 22.6907 0.351512 22.5229L22.523 0.351446C22.748 0.126419 23.0532 0 23.3714 0C23.6897 0 23.9949 0.126419 24.2199 0.351446C24.4449 0.576474 24.5714 0.881676 24.5714 1.19991C24.5714 1.51815 24.4449 1.82335 24.2199 2.04838L2.04845 24.2198C1.93713 24.3314 1.80486 24.4199 1.65926 24.4801C1.51365 24.5404 1.35757 24.5713 1.19998 24.5711Z" fill="black"/>
<path d="M23.3714 24.5711C23.2138 24.5713 23.0577 24.5404 22.9121 24.4801C22.7665 24.4199 22.6342 24.3314 22.5229 24.2198L0.351446 2.04838C0.126419 1.82335 0 1.51815 0 1.19991C0 0.881676 0.126419 0.576474 0.351446 0.351446C0.576474 0.126419 0.881676 0 1.19991 0C1.51815 0 1.82335 0.126419 2.04838 0.351446L24.2198 22.5229C24.3877 22.6907 24.502 22.9045 24.5483 23.1373C24.5946 23.37 24.5708 23.6113 24.48 23.8305C24.3892 24.0498 24.2354 24.2372 24.038 24.369C23.8407 24.5008 23.6087 24.5712 23.3714 24.5711Z" fill="black"/>
</g>
</svg>
