<svg width="17" height="17" viewBox="0 0 17 17" fill="none" xmlns="http://www.w3.org/2000/svg">
<g opacity="0.99">
<path d="M17 8.5C17 13.1944 13.1944 17 8.5 17C3.80558 17 0 13.1944 0 8.5C0 3.80558 3.80558 0 8.5 0C13.1944 0 17 3.80558 17 8.5ZM8.5 0.773116C4.24105 0.773116 0.788492 4.23294 0.788492 8.49188C0.788492 12.7508 4.24105 16.2107 8.5 16.2107C12.7589 16.2107 16.2115 12.7508 16.2115 8.49188C16.2115 4.23294 12.7589 0.773116 8.5 0.773116Z" fill="white"/>
<path d="M12 7.75491H11.5675V5.83309C9.64793 7.74345 7.7492 9.63248 5.82393 11.5486H7.75024V12H5V9.24978H5.43877V11.1534C7.34843 9.25759 9.25028 7.37013 11.1782 5.45663H9.26746V5H12V7.75543V7.75491Z" fill="white"/>
</g>
</svg>
