<svg width="14" height="11" viewBox="0 0 14 11" fill="none" xmlns="http://www.w3.org/2000/svg">
<path d="M2.26888 7.74277V8.67918C2.40294 8.62659 2.5304 8.57716 2.65751 8.5265C2.80251 8.46865 2.94802 8.41203 3.09128 8.35033C3.15953 8.32106 3.22117 8.32106 3.27726 8.36961C3.3297 8.41519 3.34742 8.47321 3.32658 8.54333C3.31946 8.56717 3.3238 8.59504 3.32467 8.62081C3.3271 8.69899 3.29272 8.75613 3.22586 8.79189C3.15901 8.82765 3.0892 8.82765 3.03155 8.77699C2.99421 8.74421 2.96504 8.74754 2.92441 8.76472C2.7834 8.82432 2.64101 8.88059 2.4823 8.94492C2.62469 9.00312 2.75319 9.05588 2.88186 9.10795C2.99421 9.15335 3.10795 9.19594 3.21944 9.24345C3.32015 9.28639 3.34603 9.34319 3.32519 9.45082C3.32033 9.47606 3.32189 9.5027 3.32241 9.52865C3.32536 9.65013 3.24983 9.73952 3.14268 9.74058C3.03537 9.74163 2.9541 9.65311 2.95375 9.53478C2.95375 9.52041 2.95375 9.50603 2.95375 9.48535C2.66619 9.36878 2.37793 9.25116 2.08863 9.13582C2.06675 9.12705 2.03602 9.12583 2.01449 9.13441C1.71685 9.25221 1.42008 9.37229 1.12384 9.49131C1.15683 9.6659 1.09501 9.7702 0.958524 9.77563C0.838533 9.78054 0.753097 9.68448 0.767163 9.5609C0.770636 9.53023 0.779318 9.49815 0.773935 9.46887C0.749103 9.33547 0.774977 9.28376 0.900526 9.23293C1.13304 9.13862 1.36591 9.04467 1.6144 8.94405C1.44874 8.87744 1.29766 8.81696 1.14277 8.75456C1.09883 8.84133 1.0424 8.9039 0.940986 8.8983C0.819779 8.89163 0.738858 8.77612 0.769768 8.65779C0.777755 8.62694 0.782965 8.59013 0.773935 8.56086C0.752055 8.49021 0.757091 8.42816 0.810402 8.37557C0.867706 8.31913 0.934734 8.32386 1.0035 8.35138C1.18844 8.42518 1.3732 8.49915 1.55814 8.57295C1.64357 8.60713 1.72883 8.64132 1.82226 8.67865V7.71858C1.60988 7.65494 1.40255 7.59552 1.19729 7.52961C1.132 7.50857 1.07105 7.47264 1.01027 7.43933C0.863538 7.35887 0.780013 7.24493 0.748061 7.06771C0.605843 6.27995 0.453379 5.49411 0.294663 4.70968C0.220168 4.34209 0.123619 3.97888 0.0359259 3.61392C-0.00644453 3.4381 -0.0139114 3.26088 0.0274171 3.08524C0.0793382 2.86454 0.20124 2.70976 0.435493 2.66138C0.822557 2.58162 1.21448 2.56585 1.60745 2.55796C1.74012 2.55533 1.87296 2.55708 2.0058 2.55463C2.36873 2.54762 2.60593 2.70801 2.71273 3.06052C2.80459 3.36378 2.87526 3.67352 2.95671 3.97993C2.98588 4.08967 3.01922 4.19817 3.05326 4.31579C3.11803 4.26233 3.16231 4.21921 3.13435 4.12069C3.04006 3.78799 2.95966 3.45107 2.86901 3.11714C2.79469 2.84316 2.65994 2.60879 2.392 2.48626C2.30778 2.4477 2.20967 2.43403 2.11642 2.42263C2.03116 2.41229 1.94364 2.42035 1.84813 2.42035C1.80784 2.21579 1.80368 2.02244 1.92523 1.84136C1.99851 1.73233 2.11086 1.70656 2.2246 1.68763C2.67123 1.61313 3.12237 1.61085 3.57299 1.61611C3.77807 1.61839 3.96231 1.8042 4.03229 2.05522C4.0948 2.27907 4.15766 2.50274 4.2207 2.72641C4.22695 2.7485 4.23546 2.76989 4.24379 2.7946C4.32645 2.73413 4.34573 2.66857 4.31221 2.5697C4.25335 2.39651 4.20906 2.21807 4.16444 2.04049C4.08925 1.74074 3.87861 1.5225 3.60945 1.48464C3.52471 1.47272 3.43702 1.48271 3.35332 1.48271C3.2599 1.194 3.38267 0.930715 3.66346 0.864104C3.91803 0.803628 4.18093 0.77786 4.44054 0.740172C4.51174 0.72983 4.58467 0.730005 4.65673 0.727726C4.93127 0.719487 5.11517 0.865682 5.17855 1.13844C5.21675 1.30269 5.25843 1.46588 5.29871 1.63101C5.46785 1.57386 5.63038 1.51882 5.80351 1.46027C5.80351 1.43573 5.80351 1.40418 5.80351 1.37263C5.80351 1.12739 5.80698 0.882334 5.80264 0.6371C5.80004 0.486523 5.86116 0.373459 5.9749 0.283534C6.1456 0.148559 6.34547 0.0815971 6.55385 0.0426821C6.93206 -0.0281362 7.30766 -0.0137622 7.6751 0.107891C7.82983 0.159076 7.975 0.230245 8.08526 0.357858C8.14865 0.431131 8.18025 0.513869 8.17938 0.613085C8.17678 0.896007 8.17851 1.17893 8.17851 1.46168C8.35234 1.5204 8.52303 1.57807 8.70363 1.6389C8.74131 1.48569 8.78194 1.32863 8.81858 1.17069C8.89117 0.856742 9.0669 0.717734 9.38503 0.727551C9.4399 0.729304 9.49512 0.730531 9.5493 0.738594C9.81707 0.778386 10.0869 0.808711 10.3514 0.865156C10.5992 0.918094 10.7407 1.18822 10.67 1.43714C10.6645 1.45659 10.6264 1.4757 10.6014 1.47868C10.5018 1.4906 10.3967 1.47991 10.3022 1.50743C10.0498 1.5807 9.92213 1.78071 9.84815 2.01841C9.78946 2.20702 9.75056 2.40195 9.68926 2.58969C9.65818 2.68504 9.67311 2.75043 9.76306 2.81792C9.83148 2.57286 9.89972 2.33376 9.96502 2.09378C10.0265 1.86836 10.1326 1.68447 10.3769 1.6233C10.3908 1.61979 10.4052 1.61471 10.4191 1.61541C10.8572 1.63644 11.2955 1.65502 11.7333 1.68079C12.1273 1.70393 12.1931 1.9965 12.1816 2.2696C12.1797 2.3157 12.1688 2.36145 12.1601 2.42035C12.103 2.42035 12.0462 2.42403 11.9899 2.41983C11.5296 2.38512 11.2736 2.7052 11.1705 3.01267C11.105 3.20777 11.0668 3.41216 11.014 3.61164C10.9694 3.78027 10.9284 3.95066 10.8722 4.11543C10.8376 4.21675 10.8699 4.27968 10.9496 4.34629C11.0323 4.04269 11.1132 3.74627 11.1938 3.4495C11.234 3.30102 11.261 3.14747 11.3157 3.0046C11.435 2.69241 11.647 2.5541 11.9748 2.55463C12.4572 2.55533 12.9396 2.55761 13.4182 2.63176C13.4835 2.64192 13.5477 2.6598 13.6125 2.674C13.89 2.735 13.9975 3.01126 13.9999 3.24966C14.0017 3.41321 13.9708 3.57939 13.9364 3.74048C13.8317 4.22972 13.7094 4.71546 13.6101 5.20575C13.4795 5.85031 13.3618 6.49766 13.244 7.14467C13.2215 7.26877 13.1414 7.33626 13.0511 7.39919C12.8302 7.5531 12.5767 7.62129 12.3181 7.67405C12.253 7.68737 12.1879 7.70192 12.1221 7.70823C12.0745 7.71279 12.0573 7.72997 12.0577 7.77835C12.0592 8.06443 12.0585 8.35033 12.0591 8.63641C12.0591 8.6471 12.0636 8.65779 12.0681 8.6783C12.2996 8.5854 12.5267 8.49425 12.7536 8.40292C12.8045 8.38241 12.8542 8.35857 12.9061 8.34139C13.0331 8.29932 13.1411 8.39556 13.1194 8.52843C13.1152 8.55367 13.1128 8.57979 13.1145 8.60503C13.1202 8.68602 13.0893 8.74825 13.0205 8.78786C12.952 8.82748 12.8848 8.82064 12.8162 8.77875C12.7906 8.76315 12.7481 8.75613 12.7208 8.76612C12.5757 8.81976 12.4329 8.88006 12.2725 8.9451C12.5085 9.04046 12.7276 9.12898 12.9469 9.21733C13.1164 9.28552 13.1233 9.29656 13.1075 9.47957C13.1065 9.49096 13.1089 9.5027 13.11 9.51427C13.1204 9.64136 13.0499 9.73392 12.9377 9.7404C12.8245 9.74689 12.7389 9.65276 12.7413 9.52427C12.7415 9.51287 12.7425 9.50165 12.7438 9.48237C12.5217 9.39385 12.2926 9.3197 12.0797 9.21242C11.904 9.1239 11.754 9.13634 11.5834 9.2168C11.3672 9.31882 11.1408 9.39911 10.9151 9.49026C10.9182 9.51901 10.9215 9.54425 10.9237 9.56949C10.931 9.65013 10.8994 9.71358 10.831 9.75302C10.7622 9.79264 10.6898 9.78545 10.6264 9.74005C10.5613 9.69342 10.5443 9.62488 10.5553 9.546C10.5601 9.51077 10.5603 9.47326 10.5544 9.4382C10.5391 9.34634 10.5717 9.28271 10.6627 9.24555C10.8741 9.15913 11.0859 9.07376 11.2976 8.98787C11.3266 8.97612 11.3554 8.96333 11.3997 8.9444C11.2349 8.87761 11.0842 8.81661 10.9348 8.75613C10.8385 8.90075 10.7409 8.94089 10.6417 8.86622C10.6006 8.83519 10.5469 8.76139 10.5585 8.72879C10.6014 8.60889 10.4867 8.46725 10.6119 8.36471C10.6709 8.31632 10.7339 8.32684 10.7994 8.35349C11.0401 8.45183 11.2815 8.54859 11.5228 8.6457C11.549 8.65622 11.5761 8.66498 11.6114 8.6776V7.88791C11.5765 7.89562 11.5452 7.89808 11.5176 7.90929C11.0823 8.08581 10.6289 8.19783 10.1715 8.29669C9.88687 8.35822 9.65349 8.64885 9.65175 8.94527C9.64915 9.40927 9.64654 9.87345 9.65366 10.3373C9.6554 10.4495 9.61268 10.5173 9.52881 10.5748C9.35933 10.6912 9.16936 10.7582 8.97331 10.809C8.50376 10.9308 8.02396 10.9685 7.54157 10.989C7.00673 11.0118 6.47276 10.9997 5.94035 10.9475C5.54964 10.9091 5.1617 10.8491 4.79583 10.6931C4.77186 10.683 4.74859 10.6714 4.72463 10.6612C4.53327 10.5804 4.44002 10.4588 4.45356 10.2265C4.47701 9.82507 4.45391 9.42119 4.4619 9.01872C4.46867 8.68251 4.29033 8.46375 4.02986 8.30265C3.94321 8.24901 3.82617 8.2448 3.72267 8.21974C3.27275 8.11123 2.83342 7.97117 2.41058 7.77975C2.37047 7.7617 2.32462 7.75679 2.26923 7.74277H2.26888ZM7.02774 7.57957C7.33371 7.56888 7.64089 7.57308 7.9453 7.54433C8.49108 7.49297 9.03669 7.43408 9.57917 7.35554C10.1677 7.27035 10.7485 7.13888 11.304 6.92012C11.5145 6.8372 11.7253 6.73694 11.9082 6.60529C12.1306 6.44525 12.0993 6.36567 11.9587 6.22911C11.9545 6.22508 11.9517 6.21982 11.9481 6.21526C11.499 5.64083 11.0496 5.06657 10.6009 4.49179C9.99662 3.71769 9.39354 2.94273 8.78819 2.16951C8.74756 2.11762 8.7005 2.06188 8.64372 2.03401C8.49716 1.96179 8.34852 1.88396 8.19171 1.84469C7.69421 1.72006 7.18576 1.71252 6.67627 1.7325C6.34373 1.74548 6.01328 1.77387 5.69255 1.87046C5.50536 1.9269 5.3258 2.0007 5.19956 2.16127C4.92311 2.51308 4.64892 2.86665 4.37368 3.21934C3.60129 4.20886 2.8289 5.19822 2.05651 6.18757C1.95961 6.3115 1.96204 6.35673 2.07422 6.47014C2.09245 6.48855 2.11242 6.50537 2.13257 6.52185C2.32341 6.67804 2.54429 6.77831 2.77038 6.86735C3.50005 7.15501 4.25977 7.31961 5.03268 7.43197C5.69429 7.52803 6.35902 7.57606 7.02757 7.57939L7.02774 7.57957Z" fill="#FFAD4D"/>
</svg>
