<svg width="40" height="40" viewBox="0 0 40 40" fill="none" xmlns="http://www.w3.org/2000/svg">
<g id="Avatar">
<rect width="40" height="40" rx="20" fill="#00BF86" fill-opacity="0.12"/>
<path id="Vector" d="M11.2136 24.7816V26.5693C11.4626 26.4689 11.6993 26.3746 11.9354 26.2779C12.2047 26.1674 12.4749 26.0593 12.741 25.9415C12.8677 25.8857 12.9822 25.8857 13.0863 25.9784C13.1837 26.0654 13.2166 26.1761 13.1779 26.31C13.1647 26.3555 13.1728 26.4087 13.1744 26.4579C13.1789 26.6072 13.115 26.7163 12.9909 26.7845C12.8667 26.8528 12.7371 26.8528 12.63 26.7561C12.5607 26.6935 12.5065 26.6999 12.431 26.7327C12.1692 26.8464 11.9047 26.9539 11.61 27.0767C11.8744 27.1878 12.1131 27.2885 12.352 27.3879C12.5607 27.4746 12.7719 27.5559 12.979 27.6466C13.166 27.7286 13.2141 27.837 13.1754 28.0425C13.1663 28.0907 13.1692 28.1415 13.1702 28.1911C13.1757 28.423 13.0354 28.5936 12.8364 28.5956C12.6371 28.5977 12.4862 28.4287 12.4855 28.2028C12.4855 28.1753 12.4855 28.1479 12.4855 28.1084C11.9515 27.8859 11.4162 27.6613 10.8789 27.4411C10.8383 27.4244 10.7812 27.422 10.7412 27.4384C10.1884 27.6633 9.6373 27.8925 9.08713 28.1198C9.1484 28.4531 9.03359 28.6522 8.78012 28.6626C8.55728 28.6719 8.39861 28.4886 8.42473 28.2526C8.43118 28.1941 8.44731 28.1328 8.43731 28.0769C8.39119 27.8223 8.43924 27.7236 8.6724 27.6265C9.10422 27.4465 9.53668 27.2671 9.99817 27.075C9.69051 26.9478 9.40994 26.8324 9.12228 26.7132C9.04069 26.8789 8.93588 26.9984 8.74755 26.9877C8.52245 26.9749 8.37216 26.7544 8.42957 26.5285C8.4444 26.4696 8.45408 26.3993 8.43731 26.3435C8.39667 26.2086 8.40603 26.0901 8.50503 25.9897C8.61145 25.882 8.73594 25.891 8.86364 25.9435C9.2071 26.0844 9.55023 26.2257 9.89368 26.3665C10.0523 26.4318 10.2107 26.4971 10.3842 26.5683V24.7355C9.98978 24.614 9.60473 24.5005 9.22354 24.3747C9.10229 24.3346 8.98909 24.2659 8.87622 24.2024C8.60371 24.0488 8.4486 23.8312 8.38926 23.4929C8.12514 21.989 7.84199 20.4888 7.54723 18.9912C7.40888 18.2894 7.22958 17.596 7.06672 16.8993C6.98803 16.5636 6.97416 16.2253 7.05092 15.89C7.14734 15.4687 7.37373 15.1732 7.80877 15.0808C8.52761 14.9286 9.25547 14.8984 9.98527 14.8834C10.2317 14.8784 10.4784 14.8817 10.7251 14.877C11.3991 14.8636 11.8396 15.1698 12.0379 15.8428C12.2085 16.4218 12.3398 17.0131 12.491 17.5981C12.5452 17.8075 12.6071 18.0147 12.6703 18.2392C12.7906 18.1372 12.8729 18.0548 12.8209 17.8668C12.6458 17.2316 12.4965 16.5884 12.3282 15.9509C12.1901 15.4278 11.9399 14.9804 11.4423 14.7465C11.2859 14.6729 11.1037 14.6468 10.9305 14.625C10.7721 14.6053 10.6096 14.6207 10.4322 14.6207C10.3574 14.2301 10.3497 13.861 10.5754 13.5153C10.7115 13.3072 10.9202 13.258 11.1314 13.2218C11.9609 13.0796 12.7987 13.0753 13.6355 13.0853C14.0164 13.0897 14.3586 13.4444 14.4885 13.9236C14.6046 14.3509 14.7214 14.778 14.8384 15.205C14.8501 15.2471 14.8659 15.288 14.8813 15.3352C15.0348 15.2197 15.0706 15.0945 15.0084 14.9058C14.8991 14.5752 14.8168 14.2345 14.734 13.8955C14.5943 13.3232 14.2031 12.9066 13.7033 12.8343C13.5459 12.8116 13.383 12.8306 13.2276 12.8306C13.0541 12.2795 13.2821 11.7768 13.8036 11.6497C14.2763 11.5342 14.7646 11.485 15.2467 11.4131C15.3789 11.3933 15.5144 11.3936 15.6482 11.3893C16.1581 11.3736 16.4996 11.6527 16.6173 12.1734C16.6883 12.4869 16.7656 12.7985 16.8405 13.1137C17.1546 13.0046 17.4564 12.8996 17.778 12.7878C17.778 12.7409 17.778 12.6807 17.778 12.6205C17.778 12.1523 17.7844 11.6845 17.7763 11.2163C17.7715 10.9288 17.885 10.713 18.0962 10.5413C18.4133 10.2836 18.7844 10.1558 19.1714 10.0815C19.8738 9.94629 20.5714 9.97373 21.2538 10.206C21.5411 10.3037 21.8107 10.4396 22.0155 10.6832C22.1332 10.8231 22.1919 10.981 22.1903 11.1704C22.1854 11.7106 22.1887 12.2507 22.1887 12.7905C22.5115 12.9026 22.8285 13.0127 23.1639 13.1288C23.2339 12.8363 23.3093 12.5365 23.3774 12.235C23.5122 11.6356 23.8385 11.3702 24.4293 11.389C24.5312 11.3923 24.6338 11.3946 24.7344 11.41C25.2317 11.486 25.7328 11.5439 26.224 11.6517C26.6842 11.7527 26.947 12.2684 26.8158 12.7436C26.8055 12.7808 26.7348 12.8172 26.6884 12.8229C26.5033 12.8457 26.3082 12.8253 26.1327 12.8778C25.6638 13.0177 25.4268 13.3995 25.2894 13.8533C25.1804 14.2134 25.1082 14.5855 24.9943 14.9439C24.9366 15.126 24.9643 15.2508 25.1314 15.3797C25.2585 14.9118 25.3852 14.4554 25.5065 13.9972C25.6206 13.5669 25.8177 13.2158 26.2714 13.099C26.2972 13.0923 26.324 13.0826 26.3498 13.084C27.1634 13.1241 27.9774 13.1596 28.7904 13.2088C29.5221 13.253 29.6443 13.8115 29.6231 14.3329C29.6195 14.4209 29.5992 14.5082 29.5831 14.6207C29.477 14.6207 29.3715 14.6277 29.267 14.6197C28.4121 14.5534 27.9368 15.1645 27.7452 15.7515C27.6236 16.1239 27.5527 16.5141 27.4546 16.895C27.3717 17.2169 27.2956 17.5422 27.1912 17.8567C27.127 18.0502 27.187 18.1703 27.335 18.2975C27.4885 17.7179 27.6388 17.152 27.7884 16.5854C27.8632 16.302 27.9132 16.0088 28.0148 15.7361C28.2363 15.14 28.6301 14.876 29.239 14.877C30.1349 14.8784 31.0307 14.8827 31.9195 15.0243C32.0408 15.0437 32.1601 15.0778 32.2804 15.1049C32.7957 15.2214 32.9954 15.7488 32.9999 16.2039C33.0031 16.5161 32.9457 16.8334 32.8818 17.1409C32.6874 18.0749 32.4603 19.0022 32.2759 19.9383C32.0334 21.1688 31.8147 22.4046 31.5961 23.6398C31.5541 23.8768 31.4055 24.0056 31.2378 24.1257C30.8276 24.4196 30.3567 24.5497 29.8765 24.6505C29.7556 24.6759 29.6347 24.7037 29.5124 24.7157C29.4241 24.7244 29.3922 24.7572 29.3928 24.8496C29.3957 25.3957 29.3944 25.9415 29.3954 26.4877C29.3954 26.5081 29.4038 26.5285 29.4122 26.5677C29.842 26.3903 30.2639 26.2163 30.6853 26.0419C30.7798 26.0028 30.8721 25.9573 30.9685 25.9245C31.2042 25.8442 31.4048 26.0279 31.3645 26.2815C31.3568 26.3297 31.3523 26.3796 31.3555 26.4278C31.3661 26.5824 31.3087 26.7012 31.181 26.7768C31.0536 26.8525 30.9288 26.8394 30.8014 26.7594C30.754 26.7296 30.675 26.7163 30.6244 26.7353C30.3548 26.8377 30.0897 26.9529 29.7917 27.077C30.23 27.2591 30.637 27.4281 31.0443 27.5967C31.359 27.7269 31.3719 27.748 31.3426 28.0974C31.3407 28.1191 31.3452 28.1415 31.3471 28.1636C31.3664 28.4062 31.2355 28.5829 31.0272 28.5953C30.8169 28.6077 30.6579 28.428 30.6625 28.1827C30.6628 28.1609 30.6647 28.1395 30.667 28.1027C30.2545 27.9337 29.8291 27.7922 29.4338 27.5873C29.1074 27.4184 28.8288 27.4421 28.5121 27.5957C28.1106 27.7905 27.69 27.9437 27.2708 28.1178C27.2766 28.1726 27.2827 28.2208 27.2869 28.269C27.3005 28.423 27.2418 28.5441 27.1147 28.6194C26.987 28.695 26.8525 28.6813 26.7348 28.5946C26.6139 28.5056 26.5823 28.3748 26.6026 28.2242C26.6116 28.1569 26.612 28.0853 26.601 28.0184C26.5726 27.843 26.6332 27.7215 26.8022 27.6506C27.1947 27.4856 27.5881 27.3226 27.9813 27.1587C28.0351 27.1362 28.0886 27.1118 28.1709 27.0757C27.8648 26.9482 27.5849 26.8317 27.3076 26.7163C27.1286 26.9923 26.9473 27.069 26.7632 26.9264C26.6868 26.8672 26.5871 26.7263 26.6087 26.664C26.6884 26.4351 26.4752 26.1648 26.7077 25.969C26.8174 25.8766 26.9345 25.8967 27.056 25.9476C27.503 26.1353 27.9513 26.32 28.3995 26.5054C28.4482 26.5255 28.4985 26.5422 28.564 26.5663V25.0587C28.4992 25.0735 28.4411 25.0781 28.3899 25.0996C27.5814 25.4366 26.7393 25.6504 25.8899 25.8391C25.3613 25.9566 24.9279 26.5114 24.9247 27.0773C24.9198 27.9632 24.915 28.8493 24.9282 29.7348C24.9315 29.949 24.8521 30.0785 24.6964 30.1882C24.3816 30.4105 24.0288 30.5383 23.6647 30.6353C22.7927 30.8679 21.9016 30.9399 21.0058 30.979C20.0125 31.0225 19.0208 30.9994 18.0321 30.8997C17.3065 30.8264 16.586 30.712 15.9065 30.4141C15.862 30.3947 15.8188 30.3726 15.7743 30.3532C15.4189 30.199 15.2457 29.9667 15.2709 29.5233C15.3144 28.7569 15.2715 27.9859 15.2864 27.2176C15.299 26.5757 14.9678 26.1581 14.484 25.8505C14.3231 25.7481 14.1057 25.7401 13.9135 25.6922C13.078 25.4851 12.2621 25.2177 11.4768 24.8523C11.4023 24.8178 11.3172 24.8084 11.2143 24.7816H11.2136ZM20.0515 24.4701C20.6197 24.4497 21.1902 24.4577 21.7556 24.4028C22.7692 24.3048 23.7824 24.1923 24.7899 24.0424C25.8828 23.8798 26.9615 23.6288 27.9932 23.2111C28.384 23.0528 28.7756 22.8614 29.1151 22.6101C29.5282 22.3046 29.4702 22.1526 29.209 21.8919C29.2012 21.8842 29.1961 21.8742 29.1893 21.8655C28.3553 20.7689 27.5207 19.6725 26.6874 18.5752C25.5652 17.0974 24.4451 15.6179 23.3209 14.1418C23.2455 14.0427 23.1581 13.9363 23.0526 13.8831C22.7804 13.7452 22.5044 13.5966 22.2132 13.5217C21.2892 13.2837 20.345 13.2694 19.3988 13.3075C18.7812 13.3323 18.1675 13.3865 17.5719 13.5709C17.2242 13.6786 16.8908 13.8195 16.6563 14.1261C16.1429 14.7977 15.6337 15.4727 15.1226 16.146C13.6881 18.0351 12.2537 19.9239 10.8192 21.8126C10.6393 22.0492 10.6438 22.1356 10.8521 22.3521C10.886 22.3872 10.9231 22.4194 10.9605 22.4508C11.3149 22.749 11.7251 22.9404 12.145 23.1104C13.5001 23.6596 14.911 23.9738 16.3464 24.1883C17.5751 24.3717 18.8096 24.4634 20.0512 24.4697L20.0515 24.4701Z" fill="#00BF86"/>
</g>
</svg>
