<svg width="40" height="40" viewBox="0 0 40 40" fill="none" xmlns="http://www.w3.org/2000/svg">
<g id="Group 7635">
<g id="Group 7634">
<path id="Vector" d="M20.5716 28.5709C25.621 28.5709 29.7144 24.4775 29.7144 19.428C29.7144 14.3786 25.621 10.2852 20.5716 10.2852C15.5221 10.2852 11.4287 14.3786 11.4287 19.428C11.4287 24.4775 15.5221 28.5709 20.5716 28.5709Z" stroke="#809CB0" stroke-width="1.6" stroke-linecap="round" stroke-linejoin="round"/>
<path id="Vector_2" d="M20.5713 23.0849V19.4277" stroke="#809CB0" stroke-width="1.6" stroke-linecap="round" stroke-linejoin="round"/>
<path id="Vector_3" d="M20.5713 15.7695H20.5794" stroke="#809CB0" stroke-width="1.6" stroke-linecap="round" stroke-linejoin="round"/>
</g>
<g id="Group 7018">
<circle id="Ellipse 2" cx="20" cy="20" r="20" fill="#00BF86"/>
<path id="Vector_4" d="M28.5718 21.8134V17.7151C28.5718 14.0386 26.0747 10.9414 22.6918 10.01C22.357 9.16655 21.5387 8.57227 20.5718 8.57227C19.605 8.57227 18.7867 9.16655 18.4518 10.01C15.069 10.9426 12.5718 14.0386 12.5718 17.7151V21.8134L10.621 23.7643C10.5147 23.8702 10.4303 23.9962 10.3729 24.1348C10.3154 24.2735 10.2859 24.4222 10.2861 24.5723V26.858C10.2861 27.1611 10.4065 27.4518 10.6209 27.6661C10.8352 27.8804 11.1259 28.0008 11.429 28.0008H29.7147C30.0178 28.0008 30.3085 27.8804 30.5228 27.6661C30.7372 27.4518 30.8576 27.1611 30.8576 26.858V24.5723C30.8578 24.4222 30.8283 24.2735 30.7708 24.1348C30.7134 23.9962 30.629 23.8702 30.5227 23.7643L28.5718 21.8134ZM28.5718 25.7151H12.5718V25.0454L14.5227 23.0946C14.629 22.9886 14.7134 22.8627 14.7708 22.724C14.8283 22.5853 14.8578 22.4367 14.8576 22.2866V17.7151C14.8576 14.5643 17.421 12.0008 20.5718 12.0008C23.7227 12.0008 26.2861 14.5643 26.2861 17.7151V22.2866C26.2861 22.5906 26.4061 22.8808 26.621 23.0946L28.5718 25.0454V25.7151ZM20.5718 31.4294C21.2796 31.4303 21.9701 31.2107 22.5473 30.801C23.1244 30.3914 23.5597 29.8121 23.7924 29.1437H17.3513C17.584 29.8121 18.0193 30.3914 18.5964 30.801C19.1736 31.2107 19.8641 31.4303 20.5718 31.4294Z" fill="white"/>
</g>
</g>
</svg>
